<mxfile host="app.diagrams.net" modified="2022-10-05T14:42:32.615Z" agent="5.0 (Windows)" etag="0SU3vGQo64MM3t0d8Li2" version="20.3.7" type="github" pages="7">
  <diagram id="MTtmtglNewBOw-12boB2" name="brainstorming">
    <mxGraphModel dx="1977" dy="1639" grid="1" gridSize="10" guides="1" tooltips="1" connect="1" arrows="1" fold="1" page="1" pageScale="1" pageWidth="827" pageHeight="1169" math="0" shadow="0">
      <root>
        <mxCell id="0" />
        <mxCell id="1" parent="0" />
        <mxCell id="Lw2xx-b1Vrvi76pnMb99-4" value="&lt;b&gt;langages de développement&lt;/b&gt;" style="ellipse;whiteSpace=wrap;html=1;" vertex="1" parent="1">
          <mxGeometry x="130" y="90" width="120" height="80" as="geometry" />
        </mxCell>
        <mxCell id="Lw2xx-b1Vrvi76pnMb99-5" value="&lt;b&gt;Fonctionnalités&lt;/b&gt;" style="ellipse;whiteSpace=wrap;html=1;" vertex="1" parent="1">
          <mxGeometry x="450" y="90" width="190" height="80" as="geometry" />
        </mxCell>
        <mxCell id="Lw2xx-b1Vrvi76pnMb99-6" value="&lt;div&gt;Pouvoir acheter une ou plusieurs places&lt;/div&gt;" style="ellipse;whiteSpace=wrap;html=1;" vertex="1" parent="1">
          <mxGeometry x="480" y="190" width="140" height="80" as="geometry" />
        </mxCell>
        <mxCell id="Lw2xx-b1Vrvi76pnMb99-7" value="Pouvoir annuler une réservation" style="ellipse;whiteSpace=wrap;html=1;" vertex="1" parent="1">
          <mxGeometry x="640" y="170" width="120" height="80" as="geometry" />
        </mxCell>
        <mxCell id="Lw2xx-b1Vrvi76pnMb99-8" value="Pouvoir choisir sa ou ses places sur un plan" style="ellipse;whiteSpace=wrap;html=1;" vertex="1" parent="1">
          <mxGeometry x="490" y="280" width="150" height="80" as="geometry" />
        </mxCell>
        <mxCell id="Lw2xx-b1Vrvi76pnMb99-9" value="gérer différents spectacles sur plusieurs dates" style="ellipse;whiteSpace=wrap;html=1;" vertex="1" parent="1">
          <mxGeometry x="720" y="350" width="120" height="80" as="geometry" />
        </mxCell>
        <mxCell id="Lw2xx-b1Vrvi76pnMb99-10" value="arrêter les ventes si une date est complète" style="ellipse;whiteSpace=wrap;html=1;" vertex="1" parent="1">
          <mxGeometry x="790" y="180" width="140" height="80" as="geometry" />
        </mxCell>
        <mxCell id="Lw2xx-b1Vrvi76pnMb99-11" value="Gérer les utilisateurs qui achètent ou annulent des places" style="ellipse;whiteSpace=wrap;html=1;" vertex="1" parent="1">
          <mxGeometry x="540" y="360" width="150" height="80" as="geometry" />
        </mxCell>
        <mxCell id="Lw2xx-b1Vrvi76pnMb99-12" value="Pouvoir vendre une place sur deux en cas de Covid-19 par exemple" style="ellipse;whiteSpace=wrap;html=1;" vertex="1" parent="1">
          <mxGeometry x="670" y="260" width="220" height="80" as="geometry" />
        </mxCell>
        <mxCell id="Lw2xx-b1Vrvi76pnMb99-13" value="&lt;font style=&quot;font-size: 18px;&quot;&gt;Analyser et développer un système de vente de billets pour une salle de spectacles&lt;/font&gt;" style="rounded=1;whiteSpace=wrap;html=1;" vertex="1" parent="1">
          <mxGeometry x="210" y="-20" width="380" height="100" as="geometry" />
        </mxCell>
        <mxCell id="Lw2xx-b1Vrvi76pnMb99-14" value="&lt;b&gt;thème&lt;/b&gt;" style="ellipse;whiteSpace=wrap;html=1;" vertex="1" parent="1">
          <mxGeometry x="530" y="-130" width="120" height="80" as="geometry" />
        </mxCell>
        <mxCell id="Lw2xx-b1Vrvi76pnMb99-15" value="&lt;div&gt;&lt;b&gt;python&lt;/b&gt;&lt;/div&gt;&lt;div&gt;mauvaise interface graphique, comment connecter au web (pas fait pour ça)&lt;br&gt;&lt;/div&gt;" style="ellipse;whiteSpace=wrap;html=1;" vertex="1" parent="1">
          <mxGeometry x="-50" y="100" width="150" height="110" as="geometry" />
        </mxCell>
        <mxCell id="Lw2xx-b1Vrvi76pnMb99-16" value="&lt;div&gt;&lt;b&gt;js - html - php -css&lt;/b&gt;&lt;/div&gt;&lt;div&gt;très classique pour la techno mais à voir pour la POO&lt;br&gt;&lt;/div&gt;" style="ellipse;whiteSpace=wrap;html=1;" vertex="1" parent="1">
          <mxGeometry x="115" y="175" width="150" height="110" as="geometry" />
        </mxCell>
        <mxCell id="Lw2xx-b1Vrvi76pnMb99-17" value="&lt;div&gt;&lt;b&gt;java&lt;/b&gt;&lt;/div&gt;&lt;div&gt;impeccable pour la POO&lt;/div&gt;&lt;div&gt;comment le connecter à une BD et à un site&lt;br&gt;&lt;/div&gt;" style="ellipse;whiteSpace=wrap;html=1;" vertex="1" parent="1">
          <mxGeometry x="-35" y="230" width="150" height="110" as="geometry" />
        </mxCell>
        <mxCell id="Lw2xx-b1Vrvi76pnMb99-18" value="quelque chose de drôle pour avoir la motivation" style="ellipse;whiteSpace=wrap;html=1;" vertex="1" parent="1">
          <mxGeometry x="550" y="-220" width="120" height="80" as="geometry" />
        </mxCell>
        <mxCell id="Lw2xx-b1Vrvi76pnMb99-19" value="salle vraiment spéciale : dans un environnement fictif" style="ellipse;whiteSpace=wrap;html=1;" vertex="1" parent="1">
          <mxGeometry x="660" y="-160" width="170" height="60" as="geometry" />
        </mxCell>
        <mxCell id="Lw2xx-b1Vrvi76pnMb99-20" value="tous les jours les gens peuvent réserver pour venir au lever du roi soleil ou un truc comme ça" style="ellipse;whiteSpace=wrap;html=1;" vertex="1" parent="1">
          <mxGeometry x="670" y="-270" width="190" height="90" as="geometry" />
        </mxCell>
      </root>
    </mxGraphModel>
  </diagram>
  <diagram id="fEvoEUf9yhXhyz30x9j0" name="diagramme de cas d&#39;utilisation">
    <mxGraphModel dx="1643" dy="1840" grid="1" gridSize="10" guides="1" tooltips="1" connect="1" arrows="1" fold="1" page="1" pageScale="1" pageWidth="827" pageHeight="1169" math="0" shadow="0">
      <root>
        <mxCell id="0" />
        <mxCell id="1" parent="0" />
        <mxCell id="RJG3WwYepJy6p4VlSrJy-27" value="&lt;div&gt;auditorium booking&lt;/div&gt;&lt;div&gt;&lt;br&gt;&lt;/div&gt;&lt;div&gt;&lt;br&gt;&lt;/div&gt;&lt;div&gt;&lt;br&gt;&lt;/div&gt;&lt;div&gt;&lt;br&gt;&lt;/div&gt;&lt;div&gt;&lt;br&gt;&lt;/div&gt;&lt;div&gt;&lt;br&gt;&lt;/div&gt;&lt;div&gt;&lt;br&gt;&lt;/div&gt;&lt;div&gt;&lt;br&gt;&lt;/div&gt;&lt;div&gt;&lt;br&gt;&lt;/div&gt;&lt;div&gt;&lt;br&gt;&lt;/div&gt;&lt;div&gt;&lt;br&gt;&lt;/div&gt;&lt;div&gt;&lt;br&gt;&lt;/div&gt;&lt;div&gt;&lt;br&gt;&lt;/div&gt;&lt;div&gt;&lt;br&gt;&lt;/div&gt;&lt;div&gt;&lt;br&gt;&lt;/div&gt;&lt;div&gt;&lt;br&gt;&lt;/div&gt;&lt;div&gt;&lt;br&gt;&lt;/div&gt;&lt;div&gt;&lt;br&gt;&lt;/div&gt;&lt;div&gt;&lt;br&gt;&lt;/div&gt;&lt;div&gt;&lt;br&gt;&lt;/div&gt;&lt;div&gt;&lt;br&gt;&lt;/div&gt;&lt;div&gt;&lt;br&gt;&lt;/div&gt;&lt;div&gt;&lt;br&gt;&lt;/div&gt;&lt;div&gt;&lt;br&gt;&lt;/div&gt;&lt;div&gt;&lt;br&gt;&lt;/div&gt;&lt;div&gt;&lt;br&gt;&lt;/div&gt;&lt;div&gt;&lt;br&gt;&lt;/div&gt;&lt;div&gt;&lt;br&gt;&lt;/div&gt;&lt;div&gt;&lt;br&gt;&lt;/div&gt;&lt;div&gt;&lt;br&gt;&lt;/div&gt;" style="rounded=0;whiteSpace=wrap;html=1;fontSize=18;fillColor=#FFFFFF;" vertex="1" parent="1">
          <mxGeometry x="590" y="-340" width="490" height="730" as="geometry" />
        </mxCell>
        <mxCell id="SeT0e6zcLXh_AO4ww7iq-1" value="manager" style="shape=umlActor;verticalLabelPosition=bottom;verticalAlign=top;html=1;fontSize=18;fillColor=#FFFFFF;" vertex="1" parent="1">
          <mxGeometry x="480" y="-290" width="30" height="60" as="geometry" />
        </mxCell>
        <mxCell id="SeT0e6zcLXh_AO4ww7iq-2" value="&lt;div&gt;spectator&lt;/div&gt;&lt;div&gt;&lt;br&gt;&lt;/div&gt;" style="shape=umlActor;verticalLabelPosition=bottom;verticalAlign=top;html=1;fontSize=18;fillColor=#FFFFFF;" vertex="1" parent="1">
          <mxGeometry x="480" y="100" width="30" height="60" as="geometry" />
        </mxCell>
        <mxCell id="SeT0e6zcLXh_AO4ww7iq-3" value="artist" style="shape=umlActor;verticalLabelPosition=bottom;verticalAlign=top;html=1;fontSize=18;fillColor=#FFFFFF;" vertex="1" parent="1">
          <mxGeometry x="480" y="-90" width="30" height="60" as="geometry" />
        </mxCell>
        <mxCell id="SeT0e6zcLXh_AO4ww7iq-10" value="bank" style="shape=umlActor;verticalLabelPosition=bottom;verticalAlign=top;html=1;fontSize=18;fillColor=#FFFFFF;" vertex="1" parent="1">
          <mxGeometry x="1120" y="40" width="30" height="60" as="geometry" />
        </mxCell>
        <mxCell id="SeT0e6zcLXh_AO4ww7iq-11" value="database" style="shape=umlActor;verticalLabelPosition=bottom;verticalAlign=top;html=1;fontSize=18;fillColor=#FFFFFF;" vertex="1" parent="1">
          <mxGeometry x="1120" y="-120" width="30" height="60" as="geometry" />
        </mxCell>
        <mxCell id="SeT0e6zcLXh_AO4ww7iq-17" value="book for a show" style="ellipse;whiteSpace=wrap;html=1;fontSize=18;fillColor=#FFFFFF;" vertex="1" parent="1">
          <mxGeometry x="620" y="130" width="140" height="70" as="geometry" />
        </mxCell>
        <mxCell id="SeT0e6zcLXh_AO4ww7iq-18" value="pay" style="ellipse;whiteSpace=wrap;html=1;fontSize=18;fillColor=#FFFFFF;" vertex="1" parent="1">
          <mxGeometry x="880" y="50" width="140" height="70" as="geometry" />
        </mxCell>
        <mxCell id="SeT0e6zcLXh_AO4ww7iq-19" value="&lt;div&gt;choose &lt;br&gt;&lt;/div&gt;&lt;div&gt;places&lt;/div&gt;" style="ellipse;whiteSpace=wrap;html=1;fontSize=18;fillColor=#FFFFFF;" vertex="1" parent="1">
          <mxGeometry x="890" y="200" width="140" height="70" as="geometry" />
        </mxCell>
        <mxCell id="u0SrRkyl7k4zlUh73zEl-1" value="log in" style="ellipse;whiteSpace=wrap;html=1;fontSize=18;fillColor=#FFFFFF;" vertex="1" parent="1">
          <mxGeometry x="920" y="-180" width="140" height="70" as="geometry" />
        </mxCell>
        <mxCell id="u0SrRkyl7k4zlUh73zEl-2" value="add show" style="ellipse;whiteSpace=wrap;html=1;fontSize=18;fillColor=#FFFFFF;" vertex="1" parent="1">
          <mxGeometry x="650" y="-270" width="140" height="70" as="geometry" />
        </mxCell>
        <mxCell id="5-va3Cu8t04rVhY4h15A-1" value="cancel places" style="ellipse;whiteSpace=wrap;html=1;fontSize=18;fillColor=#FFFFFF;" vertex="1" parent="1">
          <mxGeometry x="640" width="140" height="70" as="geometry" />
        </mxCell>
        <mxCell id="RJG3WwYepJy6p4VlSrJy-1" value="consult booking" style="ellipse;whiteSpace=wrap;html=1;fontSize=18;fillColor=#FFFFFF;" vertex="1" parent="1">
          <mxGeometry x="650" y="-120" width="140" height="70" as="geometry" />
        </mxCell>
        <mxCell id="RJG3WwYepJy6p4VlSrJy-2" value="include" style="endArrow=open;endSize=12;dashed=1;html=1;rounded=0;fontSize=18;entryX=0;entryY=0.5;entryDx=0;entryDy=0;exitX=1;exitY=0.5;exitDx=0;exitDy=0;" edge="1" parent="1" source="RJG3WwYepJy6p4VlSrJy-1" target="u0SrRkyl7k4zlUh73zEl-1">
          <mxGeometry width="160" relative="1" as="geometry">
            <mxPoint x="600" y="250" as="sourcePoint" />
            <mxPoint x="760" y="250" as="targetPoint" />
          </mxGeometry>
        </mxCell>
        <mxCell id="RJG3WwYepJy6p4VlSrJy-3" value="include" style="endArrow=open;endSize=12;dashed=1;html=1;rounded=0;fontSize=18;entryX=0;entryY=0;entryDx=0;entryDy=0;exitX=1;exitY=0.5;exitDx=0;exitDy=0;" edge="1" parent="1" source="u0SrRkyl7k4zlUh73zEl-2" target="u0SrRkyl7k4zlUh73zEl-1">
          <mxGeometry width="160" relative="1" as="geometry">
            <mxPoint x="800.0000000000036" y="-115" as="sourcePoint" />
            <mxPoint x="930.0000000000009" y="-135" as="targetPoint" />
          </mxGeometry>
        </mxCell>
        <mxCell id="RJG3WwYepJy6p4VlSrJy-8" value="" style="endArrow=none;html=1;rounded=0;fontSize=18;entryX=0;entryY=0.5;entryDx=0;entryDy=0;exitX=1;exitY=0.3333333333333333;exitDx=0;exitDy=0;exitPerimeter=0;" edge="1" parent="1" source="SeT0e6zcLXh_AO4ww7iq-3" target="RJG3WwYepJy6p4VlSrJy-1">
          <mxGeometry width="50" height="50" relative="1" as="geometry">
            <mxPoint x="480" y="70" as="sourcePoint" />
            <mxPoint x="530" y="20" as="targetPoint" />
          </mxGeometry>
        </mxCell>
        <mxCell id="RJG3WwYepJy6p4VlSrJy-10" value="" style="endArrow=none;html=1;rounded=0;fontSize=18;entryX=0;entryY=0;entryDx=0;entryDy=0;exitX=1;exitY=0.3333333333333333;exitDx=0;exitDy=0;exitPerimeter=0;" edge="1" parent="1" source="SeT0e6zcLXh_AO4ww7iq-1" target="RJG3WwYepJy6p4VlSrJy-1">
          <mxGeometry width="50" height="50" relative="1" as="geometry">
            <mxPoint x="520" y="-60" as="sourcePoint" />
            <mxPoint x="660.0000000000118" y="-115" as="targetPoint" />
          </mxGeometry>
        </mxCell>
        <mxCell id="RJG3WwYepJy6p4VlSrJy-11" value="" style="endArrow=none;html=1;rounded=0;fontSize=18;entryX=0;entryY=0.5;entryDx=0;entryDy=0;exitX=1;exitY=0.3333333333333333;exitDx=0;exitDy=0;exitPerimeter=0;" edge="1" parent="1" source="SeT0e6zcLXh_AO4ww7iq-1" target="u0SrRkyl7k4zlUh73zEl-2">
          <mxGeometry width="50" height="50" relative="1" as="geometry">
            <mxPoint x="510" y="-155" as="sourcePoint" />
            <mxPoint x="650.0000000000118" y="-210" as="targetPoint" />
          </mxGeometry>
        </mxCell>
        <mxCell id="RJG3WwYepJy6p4VlSrJy-12" value="extend" style="endArrow=open;endSize=12;dashed=1;html=1;rounded=0;fontSize=18;entryX=0;entryY=0.5;entryDx=0;entryDy=0;exitX=1;exitY=0.5;exitDx=0;exitDy=0;" edge="1" parent="1" source="SeT0e6zcLXh_AO4ww7iq-17" target="SeT0e6zcLXh_AO4ww7iq-19">
          <mxGeometry width="160" relative="1" as="geometry">
            <mxPoint x="859.9999999999873" y="-9.999999999999773" as="sourcePoint" />
            <mxPoint x="1010.502525316941" y="55.251262658471205" as="targetPoint" />
          </mxGeometry>
        </mxCell>
        <mxCell id="RJG3WwYepJy6p4VlSrJy-13" value="" style="endArrow=none;html=1;rounded=0;fontSize=18;entryX=0;entryY=1;entryDx=0;entryDy=0;exitX=1;exitY=0.3333333333333333;exitDx=0;exitDy=0;exitPerimeter=0;" edge="1" parent="1" source="SeT0e6zcLXh_AO4ww7iq-2" target="5-va3Cu8t04rVhY4h15A-1">
          <mxGeometry width="50" height="50" relative="1" as="geometry">
            <mxPoint x="520" y="-60" as="sourcePoint" />
            <mxPoint x="660.0000000000118" y="-115" as="targetPoint" />
          </mxGeometry>
        </mxCell>
        <mxCell id="RJG3WwYepJy6p4VlSrJy-15" value="include" style="endArrow=open;endSize=12;dashed=1;html=1;rounded=0;fontSize=18;entryX=0;entryY=1;entryDx=0;entryDy=0;exitX=1;exitY=0.5;exitDx=0;exitDy=0;" edge="1" parent="1" source="5-va3Cu8t04rVhY4h15A-1" target="u0SrRkyl7k4zlUh73zEl-1">
          <mxGeometry width="160" relative="1" as="geometry">
            <mxPoint x="799.9999999999873" y="-115" as="sourcePoint" />
            <mxPoint x="930" y="-135" as="targetPoint" />
          </mxGeometry>
        </mxCell>
        <mxCell id="RJG3WwYepJy6p4VlSrJy-17" value="include" style="endArrow=open;endSize=12;dashed=1;html=1;rounded=0;fontSize=18;entryX=0;entryY=0.5;entryDx=0;entryDy=0;exitX=1;exitY=0;exitDx=0;exitDy=0;" edge="1" parent="1" source="SeT0e6zcLXh_AO4ww7iq-17" target="SeT0e6zcLXh_AO4ww7iq-18">
          <mxGeometry width="160" relative="1" as="geometry">
            <mxPoint x="790" y="112.63" as="sourcePoint" />
            <mxPoint x="950.502525316941" y="-42.6212626584703" as="targetPoint" />
          </mxGeometry>
        </mxCell>
        <mxCell id="RJG3WwYepJy6p4VlSrJy-18" value="include" style="endArrow=open;endSize=12;dashed=1;html=1;rounded=0;fontSize=18;entryX=0.5;entryY=1;entryDx=0;entryDy=0;exitX=0.5;exitY=0;exitDx=0;exitDy=0;" edge="1" parent="1" source="SeT0e6zcLXh_AO4ww7iq-18" target="u0SrRkyl7k4zlUh73zEl-1">
          <mxGeometry width="160" relative="1" as="geometry">
            <mxPoint x="749.497474683058" y="150.2512626584712" as="sourcePoint" />
            <mxPoint x="890" y="95" as="targetPoint" />
          </mxGeometry>
        </mxCell>
        <mxCell id="RJG3WwYepJy6p4VlSrJy-19" value="" style="endArrow=none;html=1;rounded=0;fontSize=18;entryX=0;entryY=0.5;entryDx=0;entryDy=0;exitX=1;exitY=0.3333333333333333;exitDx=0;exitDy=0;exitPerimeter=0;" edge="1" parent="1" source="SeT0e6zcLXh_AO4ww7iq-2" target="SeT0e6zcLXh_AO4ww7iq-17">
          <mxGeometry width="50" height="50" relative="1" as="geometry">
            <mxPoint x="520" y="130" as="sourcePoint" />
            <mxPoint x="670.502525316941" y="69.7487373415297" as="targetPoint" />
          </mxGeometry>
        </mxCell>
        <mxCell id="RJG3WwYepJy6p4VlSrJy-20" value="" style="endArrow=none;html=1;rounded=0;fontSize=18;entryX=0;entryY=0.3333333333333333;entryDx=0;entryDy=0;exitX=1;exitY=0.5;exitDx=0;exitDy=0;entryPerimeter=0;" edge="1" parent="1" source="SeT0e6zcLXh_AO4ww7iq-18" target="SeT0e6zcLXh_AO4ww7iq-10">
          <mxGeometry width="50" height="50" relative="1" as="geometry">
            <mxPoint x="830" y="310" as="sourcePoint" />
            <mxPoint x="940" y="355" as="targetPoint" />
          </mxGeometry>
        </mxCell>
        <mxCell id="RJG3WwYepJy6p4VlSrJy-21" value="" style="endArrow=none;html=1;rounded=0;fontSize=18;entryX=0;entryY=0.3333333333333333;entryDx=0;entryDy=0;exitX=1;exitY=0.5;exitDx=0;exitDy=0;entryPerimeter=0;" edge="1" parent="1" source="u0SrRkyl7k4zlUh73zEl-1" target="SeT0e6zcLXh_AO4ww7iq-11">
          <mxGeometry width="50" height="50" relative="1" as="geometry">
            <mxPoint x="1036.9999999999995" y="40" as="sourcePoint" />
            <mxPoint x="1167.0000000000005" y="15" as="targetPoint" />
          </mxGeometry>
        </mxCell>
        <mxCell id="RJG3WwYepJy6p4VlSrJy-22" value="" style="endArrow=none;html=1;rounded=0;fontSize=18;entryX=0;entryY=1;entryDx=0;entryDy=0;exitX=1;exitY=0.5;exitDx=0;exitDy=0;entryPerimeter=0;" edge="1" parent="1" source="RJG3WwYepJy6p4VlSrJy-1" target="SeT0e6zcLXh_AO4ww7iq-11">
          <mxGeometry width="50" height="50" relative="1" as="geometry">
            <mxPoint x="1069.9999999999995" y="-135" as="sourcePoint" />
            <mxPoint x="1160.0000000000005" y="-90" as="targetPoint" />
          </mxGeometry>
        </mxCell>
        <mxCell id="RJG3WwYepJy6p4VlSrJy-23" value="consult shows" style="ellipse;whiteSpace=wrap;html=1;fontSize=18;fillColor=#FFFFFF;" vertex="1" parent="1">
          <mxGeometry x="620" y="280" width="140" height="70" as="geometry" />
        </mxCell>
        <mxCell id="RJG3WwYepJy6p4VlSrJy-24" value="" style="endArrow=none;html=1;rounded=0;fontSize=18;entryX=0;entryY=0.5;entryDx=0;entryDy=0;exitX=1;exitY=0.3333333333333333;exitDx=0;exitDy=0;exitPerimeter=0;" edge="1" parent="1" source="SeT0e6zcLXh_AO4ww7iq-2" target="RJG3WwYepJy6p4VlSrJy-23">
          <mxGeometry width="50" height="50" relative="1" as="geometry">
            <mxPoint x="520" y="130" as="sourcePoint" />
            <mxPoint x="630" y="175" as="targetPoint" />
          </mxGeometry>
        </mxCell>
        <mxCell id="RJG3WwYepJy6p4VlSrJy-25" value="extend" style="endArrow=open;endSize=12;dashed=1;html=1;rounded=0;fontSize=18;entryX=0.5;entryY=1;entryDx=0;entryDy=0;exitX=0.5;exitY=0;exitDx=0;exitDy=0;" edge="1" parent="1" source="RJG3WwYepJy6p4VlSrJy-23" target="SeT0e6zcLXh_AO4ww7iq-17">
          <mxGeometry width="160" relative="1" as="geometry">
            <mxPoint x="770" y="175" as="sourcePoint" />
            <mxPoint x="900" y="245" as="targetPoint" />
          </mxGeometry>
        </mxCell>
      </root>
    </mxGraphModel>
  </diagram>
  <diagram id="EjaUqS9ei_Ps6tPs6ui-" name="diagramme de classe">
    <mxGraphModel dx="1150" dy="470" grid="1" gridSize="10" guides="1" tooltips="1" connect="1" arrows="1" fold="1" page="1" pageScale="1" pageWidth="827" pageHeight="1169" math="0" shadow="0">
      <root>
        <mxCell id="0" />
        <mxCell id="1" parent="0" />
      </root>
    </mxGraphModel>
  </diagram>
  <diagram id="_uSiRpwaNAKj_vG7YCZ8" name="diagramme de composants">
    <mxGraphModel dx="1150" dy="470" grid="1" gridSize="10" guides="1" tooltips="1" connect="1" arrows="1" fold="1" page="1" pageScale="1" pageWidth="827" pageHeight="1169" math="0" shadow="0">
      <root>
        <mxCell id="0" />
        <mxCell id="1" parent="0" />
      </root>
    </mxGraphModel>
  </diagram>
  <diagram id="MZ5sCc2IquazVMsn3lDX" name="diagramme états-transitions">
    <mxGraphModel dx="1150" dy="470" grid="1" gridSize="10" guides="1" tooltips="1" connect="1" arrows="1" fold="1" page="1" pageScale="1" pageWidth="827" pageHeight="1169" math="0" shadow="0">
      <root>
        <mxCell id="0" />
        <mxCell id="1" parent="0" />
      </root>
    </mxGraphModel>
  </diagram>
  <diagram id="CKRglDjFbvotFfAfRZL-" name="diagramme d&#39;activité">
    <mxGraphModel dx="1150" dy="470" grid="1" gridSize="10" guides="1" tooltips="1" connect="1" arrows="1" fold="1" page="1" pageScale="1" pageWidth="827" pageHeight="1169" math="0" shadow="0">
      <root>
        <mxCell id="0" />
        <mxCell id="1" parent="0" />
      </root>
    </mxGraphModel>
  </diagram>
  <diagram id="mWvHrkENbBCahSq2efpZ" name="diagramme de séquence">
    <mxGraphModel dx="1150" dy="470" grid="1" gridSize="10" guides="1" tooltips="1" connect="1" arrows="1" fold="1" page="1" pageScale="1" pageWidth="827" pageHeight="1169" math="0" shadow="0">
      <root>
        <mxCell id="0" />
        <mxCell id="1" parent="0" />
      </root>
    </mxGraphModel>
  </diagram>
</mxfile>
